<svg id="Laag_1" data-name="Laag 1" xmlns="http://www.w3.org/2000/svg" xmlns:xlink="http://www.w3.org/1999/xlink" viewBox="0 0 245.49 99.56"><defs><style>.cls-1{fill:url(#Naamloos_verloop_35);}.cls-2{fill:#f39200;}</style><linearGradient id="Naamloos_verloop_35" x1="7.5" y1="54.52" x2="252.99" y2="54.52" gradientUnits="userSpaceOnUse"><stop offset="0" stop-color="#fff"/><stop offset="0.11" stop-color="#fffefc"/><stop offset="0.18" stop-color="#fefaf4"/><stop offset="0.24" stop-color="#fef4e6"/><stop offset="0.29" stop-color="#fdecd1"/><stop offset="0.33" stop-color="#fce0b7"/><stop offset="0.37" stop-color="#fad297"/><stop offset="0.41" stop-color="#f8c270"/><stop offset="0.45" stop-color="#f6af44"/><stop offset="0.49" stop-color="#f49a12"/><stop offset="0.5" stop-color="#f39200"/><stop offset="0.51" stop-color="#f49a12"/><stop offset="0.55" stop-color="#f6af44"/><stop offset="0.58" stop-color="#f8c270"/><stop offset="0.62" stop-color="#fad297"/><stop offset="0.66" stop-color="#fce0b7"/><stop offset="0.71" stop-color="#fdecd1"/><stop offset="0.76" stop-color="#fef4e6"/><stop offset="0.81" stop-color="#fefaf4"/><stop offset="0.88" stop-color="#fffefc"/><stop offset="0.99" stop-color="#fff"/></linearGradient></defs><path class="cls-1" d="M206.94,46.54,250.33,7h-7.59L183,61.71V7h-8.45L137.8,95.52h-.27L100.4,7H92v21.3A44.61,44.61,0,0,0,86,19.19,41.15,41.15,0,0,0,71.78,8.61a44.9,44.9,0,0,0-19-3.86,45.39,45.39,0,0,0-19.1,3.86A41,41,0,0,0,19.41,19.19,46.79,46.79,0,0,0,10.56,35,60.91,60.91,0,0,0,7.5,54.52,60.87,60.87,0,0,0,10.56,74a46.74,46.74,0,0,0,8.85,15.84,41,41,0,0,0,14.24,10.58,45.54,45.54,0,0,0,19.1,3.86,45.05,45.05,0,0,0,19-3.86A41.15,41.15,0,0,0,86,89.86,44.61,44.61,0,0,0,92,80.74V102h5.86V14.2h.27L134.74,102h5.85L176.8,14.2h.26V102H183V68.5l19.7-18,43,51.51H253ZM89.35,71.83A42.49,42.49,0,0,1,81.63,86a37.52,37.52,0,0,1-12.31,9.65,36.8,36.8,0,0,1-16.57,3.59A36.66,36.66,0,0,1,23.74,86,42.32,42.32,0,0,1,16,71.83a55.09,55.09,0,0,1-2.66-17.31A55,55,0,0,1,16,37.22a42.22,42.22,0,0,1,7.72-14.17,36.7,36.7,0,0,1,29-13.25,36.8,36.8,0,0,1,16.57,3.6,37.39,37.39,0,0,1,12.31,9.65,42.4,42.4,0,0,1,7.72,14.17A55,55,0,0,1,92,54.52,55.09,55.09,0,0,1,89.35,71.83Z" transform="translate(-7.5 -4.75)"/><path class="cls-2" d="M92,7h8.39l37.13,88.51h.27L174.53,7h8.39v95h-5.86V14.2h-.26L140.59,102h-5.85L98.14,14.2h-.27V102H92Z" transform="translate(-7.5 -4.75)"/></svg>